<mxfile host="app.diagrams.net" agent="Mozilla/5.0 (Windows NT 10.0; Win64; x64) AppleWebKit/537.36 (KHTML, like Gecko) Chrome/132.0.0.0 Safari/537.36" version="28.0.7">
  <diagram id="-bhcayAAoxuljZCtA-Uk" name="Page-3">
    <mxGraphModel dx="786" dy="451" grid="1" gridSize="10" guides="1" tooltips="1" connect="1" arrows="1" fold="1" page="1" pageScale="1" pageWidth="827" pageHeight="1169" math="0" shadow="0">
      <root>
        <mxCell id="0" />
        <mxCell id="1" parent="0" />
        <mxCell id="KRTdItlhtt4vXNcbBSiI-1" value="start" style="ellipse;whiteSpace=wrap;html=1;fillColor=#647687;fontColor=#ffffff;strokeColor=#314354;" parent="1" vertex="1">
          <mxGeometry x="286" y="10" width="256" height="80" as="geometry" />
        </mxCell>
        <mxCell id="KRTdItlhtt4vXNcbBSiI-2" value="NEW USER?&lt;div&gt;run&amp;nbsp;&lt;/div&gt;&lt;div&gt;create_dataset_py&lt;/div&gt;" style="rhombus;whiteSpace=wrap;html=1;fillColor=#fa6800;fontColor=#000000;strokeColor=#C73500;" parent="1" vertex="1">
          <mxGeometry x="310" y="150" width="210" height="70" as="geometry" />
        </mxCell>
        <mxCell id="KRTdItlhtt4vXNcbBSiI-3" value="Recognize&lt;div&gt;the face&amp;nbsp;&lt;/div&gt;&lt;div&gt;run&lt;/div&gt;&lt;div&gt;face_recognize_Py&lt;/div&gt;" style="shape=parallelogram;perimeter=parallelogramPerimeter;whiteSpace=wrap;html=1;fixedSize=1;fillColor=#e3c800;fontColor=#000000;strokeColor=#B09500;" parent="1" vertex="1">
          <mxGeometry x="290" y="280" width="240" height="70" as="geometry" />
        </mxCell>
        <mxCell id="KRTdItlhtt4vXNcbBSiI-4" value="Face&amp;nbsp;&lt;div&gt;Recognized&lt;/div&gt;" style="rhombus;whiteSpace=wrap;html=1;fillColor=#76608a;fontColor=#ffffff;strokeColor=#432D57;" parent="1" vertex="1">
          <mxGeometry x="265" y="410" width="270" height="80" as="geometry" />
        </mxCell>
        <mxCell id="KRTdItlhtt4vXNcbBSiI-5" value="stored in csv file with registration Number &amp;amp; Date .time of entry" style="shape=parallelogram;perimeter=parallelogramPerimeter;whiteSpace=wrap;html=1;fixedSize=1;fillColor=#6d8764;fontColor=#ffffff;strokeColor=#3A5431;" parent="1" vertex="1">
          <mxGeometry x="270" y="540" width="260" height="70" as="geometry" />
        </mxCell>
        <mxCell id="KRTdItlhtt4vXNcbBSiI-6" value="END" style="ellipse;whiteSpace=wrap;html=1;fillColor=#e51400;fontColor=#ffffff;strokeColor=#B20000;" parent="1" vertex="1">
          <mxGeometry x="250" y="680" width="290" height="80" as="geometry" />
        </mxCell>
        <mxCell id="KRTdItlhtt4vXNcbBSiI-7" value="Give your photograph" style="rounded=0;whiteSpace=wrap;html=1;fillColor=#647687;fontColor=#ffffff;strokeColor=#314354;" parent="1" vertex="1">
          <mxGeometry x="590" y="150" width="200" height="60" as="geometry" />
        </mxCell>
        <mxCell id="KRTdItlhtt4vXNcbBSiI-9" value="" style="endArrow=classic;html=1;rounded=0;exitX=0.5;exitY=1;exitDx=0;exitDy=0;entryX=0.5;entryY=0;entryDx=0;entryDy=0;" parent="1" source="KRTdItlhtt4vXNcbBSiI-1" target="KRTdItlhtt4vXNcbBSiI-2" edge="1">
          <mxGeometry width="50" height="50" relative="1" as="geometry">
            <mxPoint x="410" y="100" as="sourcePoint" />
            <mxPoint x="414" y="140" as="targetPoint" />
          </mxGeometry>
        </mxCell>
        <mxCell id="KRTdItlhtt4vXNcbBSiI-10" value="" style="endArrow=classic;html=1;rounded=0;exitX=0.476;exitY=1;exitDx=0;exitDy=0;exitPerimeter=0;entryX=0.5;entryY=0;entryDx=0;entryDy=0;entryPerimeter=0;" parent="1" source="KRTdItlhtt4vXNcbBSiI-2" target="KRTdItlhtt4vXNcbBSiI-3" edge="1">
          <mxGeometry width="50" height="50" relative="1" as="geometry">
            <mxPoint x="460" y="290" as="sourcePoint" />
            <mxPoint x="510" y="240" as="targetPoint" />
          </mxGeometry>
        </mxCell>
        <mxCell id="KRTdItlhtt4vXNcbBSiI-11" value="" style="endArrow=classic;html=1;rounded=0;" parent="1" edge="1">
          <mxGeometry width="50" height="50" relative="1" as="geometry">
            <mxPoint x="400" y="360" as="sourcePoint" />
            <mxPoint x="400" y="410" as="targetPoint" />
          </mxGeometry>
        </mxCell>
        <mxCell id="KRTdItlhtt4vXNcbBSiI-12" value="" style="endArrow=classic;html=1;rounded=0;exitX=0.5;exitY=1;exitDx=0;exitDy=0;exitPerimeter=0;entryX=0.5;entryY=0;entryDx=0;entryDy=0;" parent="1" target="KRTdItlhtt4vXNcbBSiI-5" edge="1">
          <mxGeometry width="50" height="50" relative="1" as="geometry">
            <mxPoint x="400" y="510" as="sourcePoint" />
            <mxPoint x="390" y="540" as="targetPoint" />
            <Array as="points">
              <mxPoint x="400" y="490" />
            </Array>
          </mxGeometry>
        </mxCell>
        <mxCell id="KRTdItlhtt4vXNcbBSiI-13" value="" style="endArrow=classic;html=1;rounded=0;exitX=0.5;exitY=1;exitDx=0;exitDy=0;exitPerimeter=0;" parent="1" source="KRTdItlhtt4vXNcbBSiI-5" edge="1">
          <mxGeometry width="50" height="50" relative="1" as="geometry">
            <mxPoint x="410" y="660" as="sourcePoint" />
            <mxPoint x="400" y="670" as="targetPoint" />
          </mxGeometry>
        </mxCell>
        <mxCell id="KRTdItlhtt4vXNcbBSiI-18" value="" style="endArrow=none;html=1;rounded=0;" parent="1" edge="1">
          <mxGeometry width="50" height="50" relative="1" as="geometry">
            <mxPoint x="540" y="450" as="sourcePoint" />
            <mxPoint x="800" y="450" as="targetPoint" />
          </mxGeometry>
        </mxCell>
        <mxCell id="KRTdItlhtt4vXNcbBSiI-19" value="" style="endArrow=none;html=1;rounded=0;" parent="1" edge="1">
          <mxGeometry width="50" height="50" relative="1" as="geometry">
            <mxPoint x="800" y="80" as="sourcePoint" />
            <mxPoint x="800" y="450" as="targetPoint" />
          </mxGeometry>
        </mxCell>
        <mxCell id="KRTdItlhtt4vXNcbBSiI-20" value="" style="endArrow=none;html=1;rounded=0;" parent="1" edge="1">
          <mxGeometry width="50" height="50" relative="1" as="geometry">
            <mxPoint x="720" y="80" as="sourcePoint" />
            <mxPoint x="800" y="80" as="targetPoint" />
          </mxGeometry>
        </mxCell>
        <mxCell id="KRTdItlhtt4vXNcbBSiI-21" value="" style="endArrow=classic;html=1;rounded=0;" parent="1" edge="1">
          <mxGeometry width="50" height="50" relative="1" as="geometry">
            <mxPoint x="720" y="80" as="sourcePoint" />
            <mxPoint x="720" y="130" as="targetPoint" />
          </mxGeometry>
        </mxCell>
        <mxCell id="KRTdItlhtt4vXNcbBSiI-22" value="" style="endArrow=none;html=1;rounded=0;exitX=0.65;exitY=0;exitDx=0;exitDy=0;exitPerimeter=0;" parent="1" edge="1">
          <mxGeometry width="50" height="50" relative="1" as="geometry">
            <mxPoint x="720" y="280" as="sourcePoint" />
            <mxPoint x="720" y="220" as="targetPoint" />
            <Array as="points">
              <mxPoint x="720" y="250" />
              <mxPoint x="720" y="210" />
            </Array>
          </mxGeometry>
        </mxCell>
        <mxCell id="KRTdItlhtt4vXNcbBSiI-23" value="" style="endArrow=classic;html=1;rounded=0;exitX=0;exitY=0.5;exitDx=0;exitDy=0;exitPerimeter=0;entryX=0.958;entryY=0.429;entryDx=0;entryDy=0;entryPerimeter=0;" parent="1" target="KRTdItlhtt4vXNcbBSiI-3" edge="1">
          <mxGeometry width="50" height="50" relative="1" as="geometry">
            <mxPoint x="590" y="310" as="sourcePoint" />
            <mxPoint x="530" y="310" as="targetPoint" />
          </mxGeometry>
        </mxCell>
        <mxCell id="KRTdItlhtt4vXNcbBSiI-24" value="" style="endArrow=none;html=1;rounded=0;" parent="1" edge="1">
          <mxGeometry width="50" height="50" relative="1" as="geometry">
            <mxPoint x="520" y="185" as="sourcePoint" />
            <mxPoint x="590" y="185" as="targetPoint" />
          </mxGeometry>
        </mxCell>
        <mxCell id="KRTdItlhtt4vXNcbBSiI-25" value="store the face data in folder on your name" style="rounded=0;whiteSpace=wrap;html=1;fillColor=#e51400;fontColor=#ffffff;strokeColor=#B20000;" parent="1" vertex="1">
          <mxGeometry x="580" y="280" width="200" height="60" as="geometry" />
        </mxCell>
        <mxCell id="KRTdItlhtt4vXNcbBSiI-26" value="yes" style="text;html=1;align=center;verticalAlign=middle;resizable=0;points=[];autosize=1;strokeColor=none;fillColor=none;" parent="1" vertex="1">
          <mxGeometry x="520" y="165" width="40" height="30" as="geometry" />
        </mxCell>
        <mxCell id="KRTdItlhtt4vXNcbBSiI-27" value="no" style="text;html=1;align=center;verticalAlign=middle;resizable=0;points=[];autosize=1;strokeColor=none;fillColor=none;" parent="1" vertex="1">
          <mxGeometry x="370" y="250" width="40" height="30" as="geometry" />
        </mxCell>
        <mxCell id="KRTdItlhtt4vXNcbBSiI-28" value="yes" style="text;html=1;align=center;verticalAlign=middle;resizable=0;points=[];autosize=1;strokeColor=none;fillColor=none;" parent="1" vertex="1">
          <mxGeometry x="340" y="498" width="40" height="30" as="geometry" />
        </mxCell>
        <mxCell id="KRTdItlhtt4vXNcbBSiI-29" value="no" style="text;html=1;align=center;verticalAlign=middle;resizable=0;points=[];autosize=1;strokeColor=none;fillColor=none;" parent="1" vertex="1">
          <mxGeometry x="580" y="420" width="40" height="30" as="geometry" />
        </mxCell>
      </root>
    </mxGraphModel>
  </diagram>
</mxfile>
